<svg id="svg" xmlns="http://www.w3.org/2000/svg" xmlns:xlink="http://www.w3.org/1999/xlink" width="400" height="400" viewBox="0, 0, 400,400"><g id="svgg"><path id="path0" d="M57.046 61.031 C 56.930 61.217,57.126 64.338,57.253 64.338 C 57.460 64.338,57.808 63.910,57.895 63.550 C 57.943 63.352,58.083 62.980,58.208 62.723 C 58.399 62.327,58.405 62.255,58.251 62.255 C 58.150 62.255,58.091 62.186,58.119 62.102 C 58.194 61.876,341.806 61.876,341.881 62.102 C 341.909 62.186,341.850 62.255,341.749 62.255 C 341.595 62.255,341.601 62.327,341.792 62.723 C 341.917 62.980,342.057 63.352,342.105 63.550 C 342.192 63.910,342.540 64.338,342.747 64.338 C 342.874 64.338,343.070 61.217,342.954 61.031 C 342.848 60.858,57.152 60.858,57.046 61.031 M216.942 62.339 C 217.060 62.370,217.253 62.370,217.371 62.339 C 217.489 62.309,217.393 62.283,217.157 62.283 C 216.921 62.283,216.824 62.309,216.942 62.339 M225.533 62.394 C 225.695 62.488,225.797 62.487,225.894 62.390 C 225.993 62.292,225.932 62.256,225.668 62.259 C 225.351 62.262,225.334 62.279,225.533 62.394 M219.301 66.479 C 217.908 66.768,217.217 66.947,215.748 67.402 C 215.276 67.547,214.534 67.748,214.098 67.847 C 213.663 67.946,213.244 68.079,213.168 68.142 C 212.990 68.290,210.645 69.100,207.659 70.045 C 206.850 70.301,206.106 70.556,206.005 70.611 C 205.724 70.765,203.874 71.419,202.574 71.824 C 201.933 72.024,201.118 72.296,200.761 72.429 C 200.405 72.563,199.971 72.672,199.798 72.672 C 199.624 72.672,199.281 72.778,199.036 72.908 C 198.624 73.126,196.207 73.917,193.566 74.697 C 192.960 74.876,192.188 75.126,191.850 75.253 C 191.071 75.546,189.868 75.934,188.848 76.222 C 188.410 76.346,187.665 76.560,187.194 76.698 C 184.955 77.351,184.602 77.444,184.349 77.447 C 184.199 77.449,183.896 77.531,183.675 77.628 C 183.453 77.726,182.638 77.977,181.863 78.188 C 181.088 78.398,180.233 78.647,179.963 78.740 C 179.694 78.834,179.142 78.973,178.738 79.049 C 178.333 79.125,177.616 79.290,177.145 79.414 C 176.673 79.539,175.542 79.814,174.632 80.025 C 173.722 80.237,172.619 80.512,172.181 80.637 C 170.937 80.992,166.182 82.013,165.074 82.163 C 164.770 82.204,164.270 82.320,163.962 82.420 C 163.434 82.593,163.092 82.665,160.539 83.142 C 159.966 83.249,159.194 83.414,158.824 83.508 C 158.453 83.602,157.516 83.772,156.741 83.885 C 155.966 83.999,155.241 84.141,155.130 84.200 C 155.019 84.260,154.426 84.365,153.813 84.435 C 153.200 84.504,152.463 84.639,152.176 84.734 C 151.889 84.830,151.324 84.943,150.919 84.986 C 150.515 85.029,149.770 85.141,149.265 85.236 C 146.264 85.798,140.402 86.602,138.051 86.774 C 137.175 86.838,135.852 86.972,135.110 87.071 C 134.369 87.170,132.880 87.307,131.801 87.375 C 130.723 87.443,129.372 87.529,128.799 87.566 C 126.412 87.718,122.340 87.860,120.243 87.863 C 116.967 87.870,111.990 88.300,108.824 88.851 C 108.453 88.916,107.607 89.051,106.945 89.152 C 105.128 89.428,102.428 90.151,98.468 91.422 C 96.358 92.099,92.666 93.914,91.321 94.936 C 89.948 95.979,88.689 97.387,87.561 99.142 C 87.236 99.648,86.779 100.357,86.545 100.718 C 86.312 101.080,85.708 102.183,85.204 103.169 C 84.700 104.156,84.128 105.267,83.934 105.637 C 83.739 106.008,83.248 107.083,82.843 108.027 C 82.438 108.971,81.945 110.046,81.748 110.417 C 81.551 110.787,81.255 111.449,81.089 111.887 C 80.524 113.380,80.023 114.644,79.730 115.319 C 79.028 116.932,78.700 117.725,78.641 117.953 C 78.580 118.193,78.336 118.840,77.602 120.711 C 77.403 121.216,77.012 122.237,76.732 122.978 C 76.452 123.719,76.163 124.430,76.090 124.557 C 76.017 124.685,75.876 125.071,75.776 125.415 C 75.507 126.346,74.446 129.079,74.203 129.469 C 74.117 129.606,74.010 129.930,73.964 130.190 C 73.919 130.450,73.806 130.836,73.715 131.048 C 73.624 131.260,73.340 132.013,73.086 132.721 C 72.831 133.428,72.551 134.116,72.463 134.249 C 72.376 134.382,72.304 134.568,72.304 134.663 C 72.304 134.757,72.171 135.145,72.008 135.524 C 70.843 138.240,70.875 139.086,72.106 138.102 C 72.997 137.389,76.847 134.868,77.960 134.268 C 78.476 133.990,79.555 133.392,80.358 132.938 C 81.160 132.485,82.034 132.024,82.299 131.914 C 82.565 131.803,83.526 131.355,84.436 130.917 C 85.346 130.479,86.366 130.039,86.703 129.938 C 87.040 129.837,87.371 129.710,87.439 129.656 C 87.506 129.601,87.865 129.474,88.235 129.373 C 88.942 129.179,90.207 128.747,90.625 128.556 C 92.520 127.689,99.499 126.852,101.962 127.197 C 102.534 127.277,103.830 127.422,104.841 127.519 C 107.546 127.780,110.338 128.214,112.684 128.737 C 113.493 128.918,114.568 129.147,115.074 129.247 C 117.180 129.663,121.575 131.007,122.634 131.559 C 122.823 131.658,123.047 131.739,123.132 131.739 C 123.786 131.743,129.454 134.614,130.476 135.459 C 130.666 135.616,131.317 136.087,131.924 136.504 C 133.090 137.307,133.352 137.496,134.447 138.328 C 134.824 138.614,135.167 138.848,135.208 138.848 C 135.250 138.848,135.898 139.236,136.648 139.710 C 139.099 141.258,141.766 142.317,144.669 142.897 C 146.851 143.333,151.691 143.274,155.270 142.769 C 156.180 142.641,157.255 142.500,157.659 142.457 C 158.064 142.414,159.056 142.271,159.865 142.139 C 160.674 142.007,161.902 141.822,162.594 141.727 C 163.286 141.633,163.898 141.528,163.952 141.494 C 164.007 141.460,164.764 141.350,165.635 141.248 C 166.506 141.146,167.384 141.005,167.586 140.934 C 167.789 140.864,168.561 140.700,169.302 140.570 C 170.043 140.440,171.311 140.186,172.120 140.006 C 172.929 139.826,173.894 139.624,174.265 139.557 C 174.635 139.491,175.492 139.304,176.169 139.142 C 176.846 138.980,177.512 138.848,177.649 138.848 C 177.787 138.848,178.640 138.624,179.544 138.350 C 180.969 137.919,182.292 137.553,183.948 137.131 C 184.184 137.071,184.579 136.938,184.825 136.835 C 185.071 136.732,185.539 136.590,185.865 136.518 C 186.408 136.399,189.338 135.307,189.811 135.047 C 190.114 134.880,191.532 134.317,192.149 134.119 C 192.449 134.023,192.835 133.851,193.007 133.737 C 193.180 133.623,193.542 133.413,193.811 133.271 C 195.746 132.252,198.234 130.555,199.020 129.718 C 199.178 129.550,199.372 129.412,199.450 129.412 C 199.529 129.412,200.042 129.142,200.590 128.813 C 201.545 128.239,204.130 126.961,204.337 126.961 C 204.391 126.961,204.610 126.882,204.822 126.785 C 205.035 126.688,205.594 126.434,206.066 126.219 C 207.156 125.725,209.469 124.929,210.662 124.639 C 211.167 124.516,211.746 124.356,211.949 124.283 C 213.809 123.617,217.112 122.960,220.159 122.650 C 223.427 122.317,226.128 122.469,230.233 123.216 C 231.207 123.394,231.891 123.461,236.581 123.842 C 238.977 124.037,244.941 124.062,246.691 123.886 C 247.264 123.828,248.836 123.671,250.184 123.537 C 252.846 123.272,254.993 122.921,256.259 122.544 C 256.702 122.412,257.183 122.304,257.329 122.304 C 257.926 122.304,261.050 120.901,262.316 120.064 C 263.052 119.578,263.773 118.803,264.589 117.621 C 264.959 117.085,265.203 116.899,266.234 116.370 C 267.617 115.659,267.648 115.618,268.495 113.341 C 269.758 109.946,269.880 107.010,268.850 104.802 C 268.464 103.973,267.494 102.696,267.251 102.696 C 267.178 102.696,266.947 102.565,266.736 102.404 C 266.206 102.000,264.578 101.242,263.679 100.982 C 263.266 100.862,262.791 100.707,262.623 100.636 C 262.132 100.431,258.404 99.265,258.240 99.265 C 258.158 99.265,257.690 99.133,257.201 98.972 C 256.712 98.812,255.843 98.622,255.270 98.550 C 254.697 98.479,253.649 98.334,252.941 98.227 C 250.595 97.875,249.836 97.795,247.549 97.655 C 245.343 97.521,235.697 97.481,234.406 97.601 C 234.052 97.634,232.907 97.692,231.863 97.730 C 230.015 97.798,228.724 97.862,226.838 97.981 C 226.333 98.013,224.761 98.097,223.346 98.168 C 221.930 98.239,220.414 98.345,219.975 98.404 C 219.537 98.463,218.434 98.548,217.525 98.593 C 216.615 98.637,215.401 98.778,214.828 98.905 C 214.256 99.033,213.070 99.193,212.194 99.261 C 211.317 99.329,210.214 99.439,209.743 99.505 C 207.877 99.768,199.186 99.735,197.733 99.461 C 197.531 99.422,196.648 99.331,195.772 99.258 C 194.896 99.185,193.793 99.038,193.321 98.933 C 192.849 98.827,191.857 98.671,191.115 98.586 C 187.343 98.155,184.452 97.304,186.760 97.304 C 187.655 97.304,191.542 97.641,192.365 97.791 C 194.683 98.211,204.430 98.270,206.618 97.877 C 207.191 97.774,208.100 97.654,208.640 97.611 C 209.179 97.568,210.199 97.456,210.907 97.364 C 211.615 97.271,213.379 97.108,214.828 97.001 C 216.278 96.895,218.704 96.701,220.221 96.571 C 221.737 96.442,223.750 96.306,224.694 96.269 C 225.637 96.233,226.740 96.150,227.145 96.085 C 227.549 96.020,228.707 95.905,229.718 95.829 C 230.729 95.754,231.777 95.640,232.047 95.577 C 232.885 95.380,241.063 95.287,243.163 95.451 C 244.193 95.532,245.726 95.652,246.569 95.719 C 247.411 95.786,248.542 95.919,249.081 96.015 C 249.620 96.111,250.717 96.249,251.518 96.321 C 252.320 96.393,253.012 96.476,253.057 96.503 C 253.102 96.531,253.802 96.665,254.612 96.801 C 255.422 96.937,256.687 97.220,257.424 97.431 C 258.160 97.641,259.067 97.884,259.440 97.970 C 259.813 98.057,260.290 98.217,260.500 98.325 C 260.710 98.434,261.149 98.582,261.476 98.654 C 261.803 98.727,262.402 98.918,262.806 99.078 C 263.472 99.343,264.028 99.607,266.360 100.767 C 270.701 102.926,271.985 107.661,269.856 113.664 C 268.899 116.361,268.883 116.381,267.034 117.101 C 265.666 117.634,265.595 117.689,264.869 118.782 C 264.188 119.806,261.578 122.059,261.072 122.059 C 260.758 122.059,259.069 122.982,259.069 123.154 C 259.069 123.411,260.860 124.318,261.887 124.581 C 262.689 124.786,263.458 125.237,264.583 126.162 C 264.954 126.466,265.395 126.812,265.564 126.930 C 266.386 127.506,268.702 129.339,271.020 131.250 C 271.879 131.958,272.726 132.644,272.902 132.774 C 273.079 132.905,273.478 133.236,273.790 133.510 C 274.102 133.783,274.626 134.200,274.954 134.436 C 275.283 134.672,275.938 135.196,276.409 135.600 C 276.881 136.005,277.680 136.639,278.184 137.010 C 278.689 137.381,279.190 137.772,279.299 137.879 C 279.582 138.160,281.653 139.614,283.576 140.883 C 284.484 141.483,285.559 142.278,285.965 142.650 C 286.371 143.023,286.896 143.471,287.132 143.645 C 287.368 143.820,287.975 144.348,288.480 144.818 C 288.986 145.289,289.778 146.014,290.241 146.430 C 290.704 146.845,291.193 147.325,291.328 147.496 C 291.462 147.667,291.855 148.017,292.201 148.273 C 292.548 148.529,293.024 148.932,293.260 149.169 C 293.653 149.563,295.732 151.342,296.914 152.296 C 297.184 152.514,297.947 153.059,298.611 153.508 C 299.274 153.958,299.982 154.451,300.184 154.604 C 300.780 155.056,302.989 156.084,304.902 156.799 C 306.349 157.341,307.336 157.847,307.414 158.088 C 307.446 158.190,307.873 158.573,308.363 158.941 C 308.852 159.309,309.438 159.768,309.666 159.961 C 310.116 160.344,312.237 161.378,313.191 161.679 C 315.470 162.399,315.496 162.403,317.253 162.351 C 318.961 162.300,320.907 161.866,321.716 161.355 C 321.871 161.257,322.135 161.138,322.304 161.089 C 322.861 160.929,323.862 160.052,324.709 158.984 C 325.209 158.352,325.697 157.867,325.928 157.770 C 326.917 157.357,327.547 155.812,327.136 154.801 C 326.948 154.337,326.141 153.462,325.343 152.856 C 324.905 152.523,323.436 151.201,321.365 149.275 C 319.593 147.628,315.730 144.330,314.725 143.607 C 313.822 142.958,310.909 140.221,308.150 137.429 C 303.427 132.650,303.690 132.935,299.506 128.064 C 297.459 125.681,297.459 125.681,295.392 123.401 C 292.425 120.130,290.414 118.173,289.157 117.335 C 287.815 116.441,285.692 114.209,283.701 111.600 C 283.330 111.114,282.873 110.553,282.684 110.352 C 282.496 110.152,282.165 109.746,281.949 109.450 C 281.733 109.154,281.276 108.603,280.934 108.224 C 280.591 107.846,280.038 107.203,279.703 106.795 C 278.199 104.960,276.055 103.108,274.494 102.294 C 273.274 101.658,272.018 100.906,270.541 99.927 C 270.144 99.664,269.455 99.207,269.009 98.912 C 268.563 98.618,267.813 98.089,267.341 97.737 C 266.869 97.385,266.124 96.856,265.686 96.562 C 265.248 96.267,264.862 95.990,264.828 95.946 C 264.795 95.901,264.381 95.615,263.909 95.309 C 263.438 95.003,262.941 94.648,262.806 94.520 C 262.672 94.393,262.093 93.976,261.520 93.594 C 260.947 93.213,260.175 92.651,259.804 92.346 C 259.433 92.041,259.020 91.740,258.885 91.677 C 258.750 91.614,258.254 91.286,257.782 90.948 C 257.310 90.610,256.740 90.206,256.515 90.050 C 256.290 89.894,255.931 89.626,255.718 89.453 C 255.505 89.280,255.083 88.996,254.779 88.822 C 254.476 88.647,253.787 88.163,253.248 87.745 C 252.708 87.327,252.047 86.874,251.777 86.739 C 251.507 86.603,251.173 86.388,251.033 86.260 C 250.893 86.132,249.999 85.518,249.045 84.895 C 248.091 84.272,246.892 83.487,246.381 83.150 C 245.410 82.509,244.683 82.087,243.326 81.377 C 242.880 81.144,242.228 80.701,241.877 80.392 C 241.525 80.084,240.934 79.616,240.564 79.354 C 240.193 79.091,239.528 78.542,239.087 78.133 C 238.645 77.724,237.970 77.171,237.586 76.903 C 237.202 76.636,236.887 76.381,236.887 76.338 C 236.887 76.295,236.074 75.549,235.081 74.680 C 234.087 73.811,232.639 72.488,231.864 71.739 C 228.625 68.614,227.721 67.955,225.551 67.135 C 222.816 66.101,221.688 65.983,219.301 66.479 M235.447 95.918 C 235.565 95.949,235.758 95.949,235.876 95.918 C 235.994 95.887,235.898 95.862,235.662 95.862 C 235.426 95.862,235.329 95.887,235.447 95.918 M244.118 96.575 C 243.911 96.645,244.011 96.656,244.424 96.608 C 244.761 96.569,245.060 96.517,245.088 96.492 C 245.184 96.406,244.424 96.471,244.118 96.575 M235.878 96.655 C 236.030 96.685,236.251 96.684,236.368 96.653 C 236.485 96.622,236.360 96.598,236.091 96.600 C 235.821 96.601,235.725 96.626,235.878 96.655 M246.508 96.693 C 246.550 96.759,246.754 96.814,246.964 96.814 C 247.427 96.814,247.380 96.753,246.838 96.649 C 246.586 96.601,246.462 96.618,246.508 96.693 M237.837 97.028 C 238.528 97.050,239.658 97.050,240.349 97.028 C 241.040 97.006,240.475 96.988,239.093 96.988 C 237.711 96.988,237.146 97.006,237.837 97.028 M213.981 97.593 C 214.125 97.718,214.719 97.792,214.648 97.676 C 214.604 97.606,214.425 97.549,214.249 97.549 C 214.074 97.549,213.953 97.569,213.981 97.593 M207.138 99.104 C 207.256 99.135,207.449 99.135,207.567 99.104 C 207.685 99.073,207.589 99.048,207.353 99.048 C 207.117 99.048,207.021 99.073,207.138 99.104 M269.625 111.593 C 269.547 111.763,269.534 111.871,269.596 111.833 C 269.659 111.795,269.733 111.832,269.761 111.917 C 269.789 112.002,269.842 111.918,269.878 111.731 C 269.963 111.285,269.805 111.198,269.625 111.593 M269.256 113.346 C 269.163 113.404,269.113 113.527,269.143 113.619 C 269.182 113.735,269.244 113.703,269.347 113.511 C 269.509 113.206,269.501 113.190,269.256 113.346 M289.338 116.299 C 289.338 116.366,289.462 116.421,289.614 116.420 C 289.837 116.418,289.855 116.395,289.706 116.299 C 289.468 116.145,289.338 116.145,289.338 116.299 M223.378 123.003 C 223.530 123.033,223.751 123.032,223.868 123.001 C 223.985 122.970,223.860 122.946,223.591 122.948 C 223.321 122.949,223.225 122.974,223.378 123.003 M296.903 123.284 C 296.788 123.419,296.740 123.529,296.796 123.529 C 296.852 123.529,296.998 123.419,297.120 123.284 C 297.242 123.150,297.290 123.039,297.228 123.039 C 297.165 123.039,297.019 123.150,296.903 123.284 M217.555 123.859 C 217.673 123.890,217.866 123.890,217.984 123.859 C 218.102 123.828,218.006 123.803,217.770 123.803 C 217.534 123.803,217.437 123.828,217.555 123.859 M251.379 124.227 C 251.497 124.257,251.690 124.257,251.808 124.227 C 251.926 124.196,251.829 124.171,251.593 124.171 C 251.357 124.171,251.261 124.196,251.379 124.227 M297.630 124.357 C 297.600 124.407,297.652 124.520,297.746 124.607 C 297.888 124.738,297.917 124.722,297.917 124.515 C 297.917 124.270,297.741 124.174,297.630 124.357 M242.065 124.720 C 242.250 124.748,242.554 124.748,242.739 124.720 C 242.924 124.692,242.773 124.669,242.402 124.669 C 242.031 124.669,241.880 124.692,242.065 124.720 M265.848 128.370 C 265.865 128.536,265.971 128.622,266.178 128.635 C 266.433 128.652,266.439 128.646,266.215 128.597 C 266.067 128.565,265.919 128.446,265.885 128.332 C 265.840 128.183,265.830 128.194,265.848 128.370 M204.327 133.716 C 204.188 134.213,204.016 134.786,203.946 134.988 C 203.876 135.190,203.618 135.990,203.373 136.765 C 202.908 138.235,202.738 138.706,202.264 139.828 C 202.108 140.199,201.832 140.888,201.652 141.360 C 201.047 142.937,200.356 144.541,199.329 146.752 C 199.110 147.224,198.868 147.748,198.792 147.917 C 198.716 148.085,198.606 148.306,198.548 148.407 C 198.489 148.508,198.243 149.004,198.000 149.510 C 197.758 150.015,197.371 150.787,197.141 151.225 C 196.911 151.664,196.376 152.711,195.952 153.554 C 195.528 154.396,195.044 155.305,194.876 155.573 C 194.707 155.841,194.442 156.337,194.285 156.676 C 194.128 157.015,193.863 157.512,193.696 157.782 C 193.529 158.051,193.286 158.499,193.156 158.777 C 193.026 159.055,192.722 159.592,192.479 159.971 C 192.236 160.350,191.962 160.840,191.869 161.059 C 191.776 161.279,191.325 162.093,190.866 162.868 C 190.407 163.643,189.861 164.590,189.654 164.973 C 189.447 165.355,188.870 166.376,188.374 167.240 C 187.468 168.815,187.026 169.596,186.650 170.282 C 186.388 170.762,186.072 171.269,185.659 171.875 C 185.475 172.145,185.132 172.724,184.898 173.162 C 184.093 174.664,183.382 175.920,183.025 176.471 C 182.828 176.774,182.452 177.436,182.189 177.941 C 181.927 178.447,181.343 179.494,180.891 180.270 C 180.440 181.045,179.885 182.065,179.657 182.537 C 179.430 183.009,179.014 183.753,178.732 184.191 C 178.451 184.629,177.916 185.594,177.544 186.336 C 177.172 187.077,176.612 188.153,176.299 188.725 C 175.987 189.298,175.534 190.181,175.293 190.686 C 175.052 191.192,174.813 191.688,174.762 191.789 C 173.515 194.267,173.599 194.089,172.045 197.549 C 170.794 200.336,170.744 200.464,169.428 204.228 C 169.333 204.498,169.108 205.104,168.926 205.576 C 168.305 207.191,167.131 212.121,166.725 214.823 C 166.312 217.567,166.378 223.263,166.859 226.409 C 167.562 231.012,168.428 234.537,169.359 236.581 C 169.421 236.716,169.642 237.240,169.851 237.745 C 170.059 238.251,170.288 238.768,170.359 238.895 C 170.430 239.022,170.567 239.348,170.663 239.620 C 170.759 239.892,171.112 240.572,171.448 241.130 C 171.784 241.688,172.059 242.199,172.059 242.265 C 172.059 242.331,172.131 242.457,172.220 242.546 C 172.309 242.635,172.751 243.260,173.203 243.934 C 175.500 247.359,178.776 250.490,182.843 253.147 C 183.416 253.522,184.165 254.015,184.507 254.242 C 184.848 254.470,185.169 254.657,185.219 254.657 C 185.268 254.657,185.788 254.884,186.374 255.161 C 186.960 255.438,187.880 255.858,188.419 256.094 C 188.958 256.331,189.486 256.600,189.592 256.692 C 189.698 256.785,190.071 256.915,190.422 256.982 C 190.773 257.048,191.165 257.158,191.292 257.227 C 192.061 257.638,197.380 259.035,199.081 259.272 C 199.755 259.366,200.858 259.525,201.532 259.626 C 202.905 259.831,206.188 259.858,207.537 259.675 C 208.009 259.611,209.076 259.478,209.909 259.380 C 210.742 259.282,211.680 259.121,211.992 259.023 C 212.305 258.924,212.782 258.808,213.051 258.765 C 213.797 258.644,216.749 257.790,217.953 257.345 C 218.290 257.221,218.732 257.082,218.934 257.037 C 219.862 256.829,224.503 254.618,225.753 253.788 C 226.538 253.267,227.280 252.792,228.142 252.259 C 229.524 251.405,233.106 248.171,234.386 246.623 C 235.420 245.372,236.492 243.916,236.745 243.421 C 236.889 243.139,237.059 242.876,237.124 242.836 C 237.188 242.796,237.475 242.338,237.762 241.817 C 238.048 241.296,238.437 240.655,238.627 240.392 C 238.816 240.129,238.971 239.867,238.971 239.809 C 238.971 239.751,239.211 239.139,239.506 238.449 C 239.800 237.758,240.271 236.559,240.552 235.784 C 240.832 235.009,241.112 234.265,241.172 234.130 C 241.448 233.515,242.168 230.192,242.526 227.880 C 242.946 225.168,242.998 224.656,243.145 221.764 C 243.329 218.163,243.151 215.772,242.453 212.439 C 242.284 211.630,242.094 210.672,242.032 210.309 C 241.774 208.798,241.441 208.754,239.928 210.032 C 239.300 210.561,238.346 211.305,237.806 211.684 C 235.990 212.960,234.009 214.276,233.701 214.412 C 233.532 214.486,233.036 214.797,232.598 215.102 C 232.160 215.407,231.471 215.837,231.066 216.057 C 230.662 216.277,230.072 216.601,229.756 216.776 C 228.026 217.737,225.634 218.979,225.368 219.055 C 225.199 219.104,224.820 219.282,224.525 219.451 C 223.895 219.813,223.215 219.784,222.658 219.372 C 222.469 219.232,222.233 219.118,222.135 219.118 C 221.919 219.118,219.252 217.748,218.566 217.285 C 218.297 217.103,217.705 216.782,217.251 216.573 C 216.798 216.363,216.164 216.009,215.843 215.786 C 215.522 215.563,214.818 215.121,214.278 214.804 C 213.738 214.488,213.236 214.176,213.163 214.113 C 213.089 214.049,212.841 213.900,212.611 213.781 C 212.381 213.663,211.780 213.257,211.275 212.880 C 210.769 212.502,210.183 212.083,209.971 211.949 C 209.199 211.458,208.872 211.211,208.222 210.627 C 207.858 210.300,207.272 209.848,206.919 209.622 C 206.266 209.205,201.348 204.407,201.348 204.188 C 201.348 204.122,201.169 203.851,200.950 203.587 C 199.714 202.098,199.543 201.848,199.075 200.858 C 198.964 200.622,198.800 200.346,198.712 200.245 C 198.623 200.144,198.349 199.565,198.103 198.958 C 197.857 198.352,197.581 197.690,197.489 197.488 C 196.838 196.041,196.800 191.882,197.422 190.030 C 199.074 185.112,202.826 181.952,207.843 181.256 C 208.349 181.185,209.121 181.074,209.559 181.008 C 210.734 180.830,213.787 180.857,214.966 181.055 C 215.530 181.150,216.650 181.293,217.453 181.372 C 218.257 181.452,219.047 181.567,219.209 181.629 C 219.371 181.691,220.065 181.854,220.750 181.993 C 221.436 182.132,222.261 182.329,222.582 182.432 C 223.326 182.670,224.209 182.606,225.797 182.199 C 226.471 182.026,227.374 181.815,227.805 181.731 C 228.252 181.643,228.722 181.461,228.901 181.308 L 229.214 181.038 228.838 180.440 C 228.479 179.867,227.923 178.881,227.223 177.571 C 227.045 177.238,226.590 176.454,226.212 175.829 C 225.834 175.205,225.316 174.308,225.061 173.836 C 224.806 173.364,224.506 172.810,224.395 172.604 C 224.284 172.398,224.080 172.067,223.941 171.868 C 223.803 171.670,223.523 171.204,223.321 170.833 C 223.118 170.463,222.679 169.691,222.346 169.118 C 222.012 168.545,221.660 167.938,221.562 167.770 C 221.465 167.601,221.322 167.381,221.245 167.279 C 221.168 167.178,220.846 166.599,220.528 165.993 C 220.211 165.386,219.890 164.815,219.815 164.724 C 219.681 164.560,218.597 162.640,217.834 161.213 C 217.617 160.809,217.260 160.175,217.040 159.804 C 216.485 158.869,216.524 158.942,215.616 157.169 C 215.168 156.293,214.758 155.521,214.705 155.453 C 214.554 155.260,213.717 153.672,212.897 152.022 C 212.796 151.820,212.620 151.489,212.505 151.287 C 212.164 150.684,211.443 149.247,211.154 148.591 C 211.005 148.254,210.727 147.647,210.535 147.243 C 209.808 145.709,209.069 144.087,209.069 144.025 C 209.069 143.990,208.961 143.734,208.830 143.457 C 208.607 142.985,208.218 142.038,207.416 140.012 C 207.229 139.540,207.029 139.044,206.971 138.909 C 206.780 138.461,206.157 136.586,206.076 136.213 C 206.032 136.011,205.894 135.570,205.769 135.233 C 205.645 134.896,205.478 134.383,205.400 134.094 C 205.321 133.804,205.105 133.398,204.919 133.190 L 204.582 132.812 204.327 133.716 M80.110 134.011 C 79.659 134.408,79.820 134.404,80.292 134.007 C 80.492 133.839,80.610 133.703,80.555 133.705 C 80.499 133.707,80.299 133.845,80.110 134.011 M208.117 139.461 C 208.117 139.697,208.142 139.793,208.173 139.675 C 208.204 139.557,208.204 139.364,208.173 139.246 C 208.142 139.128,208.117 139.225,208.117 139.461 M222.059 165.189 C 222.059 165.328,222.114 165.441,222.181 165.441 C 222.249 165.441,222.304 165.362,222.304 165.265 C 222.304 165.167,222.249 165.054,222.181 165.012 C 222.114 164.971,222.059 165.050,222.059 165.189 M210.417 183.231 C 206.158 183.691,202.631 185.934,201.187 189.101 C 200.266 191.122,200.162 191.516,199.931 193.888 C 199.812 195.109,200.163 197.102,200.747 198.528 C 201.010 199.169,201.225 199.750,201.225 199.819 C 201.225 199.975,202.440 201.890,202.863 202.401 C 203.036 202.610,203.371 203.069,203.608 203.421 C 204.507 204.756,207.895 207.924,210.478 209.843 C 213.094 211.787,213.503 212.075,214.400 212.605 C 214.871 212.884,215.643 213.359,216.115 213.660 C 216.587 213.962,217.194 214.319,217.463 214.454 C 217.733 214.589,218.036 214.753,218.137 214.819 C 219.200 215.506,222.173 217.030,223.085 217.355 C 223.780 217.603,224.074 217.568,224.917 217.138 C 225.333 216.926,225.839 216.671,226.042 216.572 C 226.547 216.324,227.540 215.783,228.929 214.999 C 229.574 214.636,230.142 214.338,230.192 214.338 C 230.242 214.338,230.900 213.933,231.655 213.437 C 232.410 212.942,233.303 212.380,233.640 212.189 C 233.977 211.998,234.501 211.638,234.804 211.390 C 235.107 211.141,235.604 210.779,235.907 210.585 C 237.041 209.860,238.815 208.452,239.825 207.475 C 239.930 207.374,240.290 207.071,240.626 206.801 C 240.963 206.532,241.287 206.229,241.348 206.127 C 241.409 206.026,241.853 205.554,242.336 205.079 C 243.086 204.339,244.975 201.971,244.975 201.771 C 244.975 201.735,245.251 201.296,245.588 200.797 C 245.925 200.297,246.201 199.801,246.201 199.694 C 246.201 199.587,246.305 199.295,246.432 199.045 C 248.922 194.144,246.711 187.068,241.973 184.774 C 241.771 184.676,241.440 184.510,241.238 184.406 C 239.392 183.450,237.705 183.163,234.007 183.172 C 232.229 183.177,230.635 183.239,230.208 183.322 C 229.804 183.400,229.004 183.522,228.431 183.594 C 227.858 183.666,227.086 183.826,226.716 183.950 C 226.345 184.074,225.821 184.215,225.551 184.264 C 225.282 184.312,224.884 184.426,224.667 184.517 C 224.156 184.730,223.190 184.726,222.775 184.510 C 222.595 184.416,222.155 184.299,221.797 184.250 C 221.438 184.201,220.923 184.080,220.652 183.982 C 218.834 183.323,213.314 182.918,210.417 183.231 M225.368 189.908 C 225.517 190.049,225.563 190.618,225.613 192.962 C 225.686 196.409,225.413 196.074,228.156 196.077 C 230.920 196.079,230.760 195.936,230.760 198.393 C 230.760 200.877,230.947 200.710,228.086 200.766 C 226.296 200.801,225.818 200.846,225.729 200.987 C 225.667 201.084,225.616 202.366,225.615 203.836 C 225.613 205.988,225.576 206.578,225.426 206.869 L 225.239 207.230 223.776 207.230 C 221.698 207.230,221.814 207.422,221.814 203.983 C 221.814 200.493,222.066 200.813,219.254 200.735 C 216.435 200.657,216.630 200.827,216.640 198.459 C 216.650 196.042,216.540 196.151,219.029 196.107 C 222.044 196.054,221.813 196.314,221.816 192.975 C 221.818 189.668,221.765 189.790,223.226 189.699 C 224.540 189.617,225.120 189.674,225.368 189.908 M217.063 198.529 C 217.063 198.765,217.088 198.862,217.119 198.744 C 217.150 198.626,217.150 198.433,217.119 198.315 C 217.088 198.197,217.063 198.294,217.063 198.529 M201.961 203.248 C 201.961 203.349,202.016 203.431,202.083 203.431 C 202.151 203.431,202.206 203.349,202.206 203.248 C 202.206 203.146,202.151 203.064,202.083 203.064 C 202.016 203.064,201.961 203.146,201.961 203.248 M202.407 203.615 C 202.445 203.716,202.561 203.799,202.663 203.799 C 202.814 203.799,202.820 203.765,202.696 203.615 C 202.612 203.514,202.497 203.431,202.440 203.431 C 202.383 203.431,202.368 203.514,202.407 203.615 M240.839 207.805 C 240.957 207.836,241.150 207.836,241.268 207.805 C 241.386 207.774,241.290 207.749,241.054 207.749 C 240.818 207.749,240.722 207.774,240.839 207.805 M222.457 218.137 C 222.485 218.241,222.663 218.330,222.865 218.341 C 223.173 218.357,223.181 218.351,222.917 218.298 C 222.748 218.263,222.565 218.172,222.509 218.094 C 222.441 218.000,222.424 218.014,222.457 218.137 M78.738 238.105 C 78.401 238.160,77.932 238.289,77.696 238.392 C 77.460 238.494,76.854 238.732,76.348 238.919 C 74.959 239.434,73.981 240.235,73.051 241.618 C 72.732 242.092,72.385 242.430,71.982 242.656 C 71.060 243.172,70.922 243.430,70.937 244.599 C 70.953 245.872,71.260 246.363,72.794 247.572 C 73.097 247.811,73.768 248.413,74.285 248.911 C 75.320 249.908,76.563 251.039,77.524 251.858 C 77.867 252.150,78.641 252.831,79.245 253.370 C 79.849 253.909,81.049 254.930,81.912 255.637 C 85.720 258.759,85.533 258.588,89.667 262.745 C 94.285 267.389,96.273 269.511,97.037 270.609 C 97.146 270.766,97.327 270.977,97.439 271.078 C 97.550 271.180,97.961 271.648,98.351 272.120 C 99.187 273.131,102.673 277.039,103.761 278.184 C 104.179 278.623,104.647 279.147,104.803 279.348 C 104.959 279.548,105.306 279.906,105.576 280.143 C 105.846 280.380,106.480 280.967,106.985 281.447 C 107.491 281.928,108.243 282.549,108.658 282.829 C 110.144 283.832,111.407 285.160,114.338 288.798 C 114.844 289.426,115.551 290.287,115.910 290.711 C 116.270 291.136,116.630 291.566,116.710 291.667 C 119.064 294.618,121.348 296.822,123.039 297.773 C 126.633 299.793,127.381 300.263,130.208 302.269 C 130.815 302.699,132.007 303.526,132.858 304.106 C 133.708 304.686,134.738 305.430,135.146 305.759 C 135.554 306.088,136.044 306.445,136.235 306.553 C 136.425 306.661,136.801 306.915,137.071 307.116 C 137.341 307.318,137.699 307.574,137.868 307.686 C 138.036 307.798,138.419 308.086,138.718 308.326 C 139.017 308.566,139.443 308.873,139.665 309.007 C 140.325 309.409,141.435 310.196,142.173 310.784 C 142.553 311.088,143.270 311.599,143.767 311.922 C 144.263 312.244,144.917 312.698,145.221 312.931 C 145.524 313.163,146.020 313.494,146.324 313.664 C 146.627 313.835,147.206 314.222,147.610 314.525 C 148.552 315.229,150.320 316.422,150.423 316.422 C 150.466 316.422,151.120 316.827,151.875 317.323 C 152.630 317.819,153.689 318.462,154.228 318.752 C 155.327 319.344,156.618 320.207,156.618 320.350 C 156.618 320.402,156.880 320.608,157.200 320.809 C 157.520 321.009,158.058 321.428,158.395 321.739 C 158.732 322.051,159.393 322.604,159.865 322.967 C 160.337 323.330,160.916 323.832,161.152 324.083 C 161.388 324.333,162.050 324.929,162.623 325.407 C 163.777 326.371,164.704 327.217,165.978 328.469 C 167.066 329.540,169.683 331.863,169.801 331.863 C 169.850 331.863,170.067 331.997,170.283 332.161 C 170.758 332.524,172.043 333.086,173.284 333.475 C 174.350 333.808,178.566 333.884,179.657 333.590 C 179.960 333.508,180.677 333.335,181.250 333.206 C 182.444 332.938,184.230 332.395,185.478 331.921 C 186.869 331.393,190.568 330.147,190.744 330.147 C 190.834 330.147,191.525 329.899,192.279 329.596 C 193.034 329.292,193.707 329.044,193.774 329.044 C 193.842 329.044,194.071 328.964,194.283 328.867 C 194.495 328.769,195.025 328.599,195.460 328.489 C 195.895 328.379,196.397 328.214,196.574 328.122 C 196.752 328.030,197.223 327.872,197.621 327.770 C 198.020 327.668,199.724 327.116,201.409 326.542 C 203.094 325.968,204.602 325.497,204.759 325.495 C 204.916 325.492,205.384 325.356,205.800 325.191 C 206.864 324.770,210.233 323.750,212.316 323.217 C 213.186 322.995,214.547 322.601,215.319 322.347 C 215.622 322.247,216.366 322.037,216.973 321.880 C 217.580 321.723,218.710 321.427,219.485 321.222 C 220.260 321.018,221.253 320.784,221.691 320.702 C 222.129 320.620,222.557 320.499,222.641 320.433 C 222.725 320.367,223.167 320.245,223.621 320.161 C 224.076 320.078,224.890 319.897,225.429 319.759 C 225.968 319.620,226.657 319.444,226.961 319.366 C 227.264 319.288,228.077 319.121,228.768 318.995 C 229.459 318.868,230.069 318.737,230.123 318.703 C 230.178 318.669,230.854 318.528,231.625 318.390 C 232.396 318.251,233.606 318.000,234.314 317.830 C 235.021 317.661,236.197 317.414,236.925 317.280 C 237.654 317.146,238.536 316.956,238.886 316.857 C 239.236 316.758,239.982 316.616,240.545 316.542 C 241.107 316.468,241.699 316.357,241.861 316.295 C 242.022 316.234,242.527 316.149,242.983 316.107 C 243.438 316.066,244.390 315.904,245.098 315.748 C 247.177 315.291,248.350 315.068,249.611 314.890 C 250.263 314.798,252.368 314.497,254.289 314.221 C 256.210 313.944,258.223 313.690,258.762 313.657 C 259.301 313.623,260.625 313.486,261.703 313.353 C 264.977 312.947,268.223 312.733,272.917 312.613 C 277.798 312.488,283.441 312.208,284.988 312.013 C 285.527 311.945,286.602 311.807,287.377 311.705 C 288.153 311.603,289.421 311.441,290.196 311.344 C 290.971 311.248,291.810 311.082,292.061 310.976 C 292.312 310.871,292.630 310.784,292.768 310.784 C 293.146 310.784,297.195 309.690,298.223 309.310 C 298.560 309.185,299.084 309.022,299.387 308.948 C 301.526 308.426,306.313 305.885,307.501 304.642 C 307.751 304.381,308.011 304.167,308.079 304.167 C 308.147 304.167,308.432 303.857,308.712 303.478 C 308.992 303.099,309.311 302.697,309.420 302.584 C 309.630 302.370,310.645 300.865,311.495 299.510 C 311.770 299.072,312.486 297.748,313.087 296.569 C 313.687 295.389,314.269 294.259,314.380 294.056 C 314.491 293.854,314.582 293.640,314.583 293.579 C 314.583 293.519,314.830 292.957,315.131 292.329 C 315.432 291.701,315.716 291.034,315.761 290.845 C 315.806 290.657,315.891 290.440,315.951 290.364 C 316.114 290.156,316.912 288.491,316.912 288.358 C 316.912 288.295,317.044 287.951,317.207 287.596 C 317.369 287.240,317.597 286.618,317.714 286.213 C 317.831 285.809,318.004 285.360,318.099 285.216 C 318.393 284.766,319.808 281.274,320.277 279.841 C 320.365 279.571,320.670 278.799,320.955 278.125 C 321.240 277.451,321.546 276.651,321.636 276.348 C 321.805 275.781,322.829 273.106,323.529 271.407 C 323.746 270.879,323.995 270.163,324.082 269.814 C 324.169 269.464,324.433 268.710,324.668 268.137 C 324.904 267.564,325.246 266.682,325.430 266.176 C 325.613 265.671,325.864 265.037,325.988 264.767 C 327.107 262.339,327.105 261.312,325.982 262.163 C 325.693 262.382,325.251 262.699,324.999 262.868 C 324.747 263.036,324.409 263.263,324.249 263.371 C 324.089 263.479,323.697 263.727,323.377 263.922 C 322.834 264.254,322.243 264.644,321.195 265.360 C 320.956 265.524,319.909 266.124,318.867 266.695 C 316.463 268.011,316.407 268.040,315.380 268.508 C 314.538 268.891,314.307 269.002,313.879 269.233 C 312.991 269.710,311.256 270.414,309.552 270.988 C 302.147 273.481,299.932 273.635,289.645 272.371 C 288.220 272.195,285.507 271.666,284.012 271.271 C 283.611 271.165,283.155 271.078,283.000 271.078 C 282.715 271.078,280.026 270.434,279.350 270.203 C 279.148 270.134,278.294 269.829,277.451 269.526 C 276.608 269.222,275.643 268.896,275.306 268.801 C 274.969 268.706,274.528 268.550,274.326 268.454 C 274.124 268.358,273.091 267.861,272.031 267.350 C 270.971 266.840,270.070 266.422,270.030 266.422 C 269.805 266.422,265.560 263.602,264.909 263.020 C 264.455 262.615,260.737 260.172,259.865 259.706 C 258.173 258.801,254.873 257.650,253.456 257.471 C 252.957 257.408,252.320 257.291,252.041 257.212 C 251.211 256.979,246.524 257.008,244.914 257.257 C 244.173 257.371,243.180 257.500,242.708 257.544 C 242.237 257.587,240.996 257.755,239.951 257.918 C 238.906 258.081,236.893 258.382,235.478 258.587 C 234.063 258.792,232.538 259.040,232.090 259.137 C 231.643 259.234,231.093 259.314,230.869 259.314 C 230.645 259.314,230.018 259.418,229.477 259.546 C 228.936 259.674,228.189 259.839,227.819 259.911 C 226.695 260.132,224.262 260.654,223.790 260.776 C 223.545 260.839,223.015 260.951,222.610 261.024 C 220.578 261.396,218.111 261.995,216.299 262.557 C 215.794 262.714,215.049 262.934,214.645 263.046 C 212.153 263.737,210.282 264.386,207.721 265.448 C 206.878 265.797,205.925 266.187,205.604 266.314 C 205.282 266.441,204.716 266.724,204.345 266.943 C 203.975 267.162,203.517 267.425,203.328 267.529 C 202.014 268.249,200.615 269.195,199.323 270.236 C 198.853 270.616,198.220 271.050,197.917 271.202 C 197.613 271.354,197.227 271.574,197.059 271.691 C 196.890 271.807,196.284 272.136,195.711 272.421 C 195.138 272.706,194.469 273.044,194.224 273.173 C 193.978 273.302,193.713 273.407,193.634 273.407 C 193.554 273.407,193.197 273.541,192.839 273.704 C 192.482 273.868,191.964 274.062,191.688 274.136 C 191.412 274.211,191.159 274.317,191.124 274.372 C 191.028 274.529,188.193 275.486,186.520 275.927 C 186.081 276.043,185.144 276.297,184.436 276.492 C 183.729 276.688,182.736 276.923,182.230 277.015 C 181.725 277.108,181.063 277.244,180.760 277.319 C 178.186 277.949,172.087 277.952,168.983 277.324 C 168.337 277.193,167.234 277.029,166.532 276.958 C 165.831 276.888,164.623 276.736,163.848 276.620 C 161.735 276.304,150.859 276.309,148.713 276.627 C 147.904 276.747,146.636 276.924,145.895 277.020 C 142.791 277.424,138.454 278.540,137.733 279.121 C 137.638 279.197,137.438 279.297,137.288 279.343 C 137.138 279.389,136.724 279.603,136.368 279.818 C 134.954 280.672,134.644 280.960,133.784 282.219 C 133.056 283.285,132.039 284.069,131.384 284.069 C 129.843 284.069,127.961 290.822,128.621 293.985 C 129.138 296.462,131.750 298.907,134.436 299.428 C 134.672 299.474,135.141 299.615,135.478 299.742 C 135.815 299.869,136.587 300.122,137.194 300.303 C 137.800 300.484,138.738 300.765,139.277 300.926 C 141.483 301.585,142.103 301.734,143.117 301.848 C 143.701 301.914,144.620 302.048,145.159 302.146 C 148.416 302.737,159.671 302.972,166.789 302.597 C 174.355 302.199,176.439 302.079,176.838 302.020 C 177.074 301.984,178.232 301.906,179.412 301.845 C 180.591 301.784,181.887 301.650,182.292 301.547 C 182.696 301.444,183.827 301.271,184.804 301.163 C 185.781 301.056,187.105 300.906,187.745 300.830 C 189.685 300.601,199.037 300.643,200.674 300.888 C 201.415 300.999,202.711 301.152,203.554 301.227 C 204.396 301.303,205.374 301.445,205.726 301.543 C 206.079 301.641,206.934 301.775,207.626 301.841 C 208.318 301.907,209.326 302.067,209.865 302.198 C 210.404 302.328,211.039 302.470,211.275 302.513 C 212.004 302.647,212.132 302.706,212.132 302.907 C 212.132 303.141,210.011 303.069,207.537 302.751 C 205.386 302.474,201.442 302.208,198.223 302.122 C 195.150 302.040,194.785 302.066,187.561 302.875 C 183.979 303.276,182.478 303.423,180.637 303.553 C 179.593 303.626,177.387 303.791,175.735 303.919 C 174.084 304.047,171.933 304.185,170.956 304.226 C 169.979 304.267,168.655 304.378,168.015 304.472 C 164.074 305.051,154.658 305.049,150.480 304.467 C 149.766 304.368,148.498 304.233,147.661 304.167 C 146.824 304.102,145.947 303.994,145.711 303.929 C 145.475 303.863,144.703 303.721,143.995 303.612 C 142.243 303.344,138.486 302.397,137.665 302.017 C 137.453 301.919,137.202 301.838,137.107 301.838 C 136.657 301.838,134.484 300.967,132.792 300.109 C 132.180 299.799,131.546 299.502,131.383 299.451 C 130.246 299.093,128.668 297.328,127.809 295.454 L 127.169 294.056 127.160 291.912 C 127.152 289.768,127.430 288.087,127.955 287.106 C 128.025 286.975,128.167 286.583,128.271 286.234 C 128.675 284.871,129.519 283.578,130.003 283.578 C 130.133 283.578,130.551 283.441,130.932 283.272 C 131.313 283.104,131.696 282.966,131.782 282.966 C 131.969 282.966,132.587 282.288,133.119 281.503 C 133.888 280.365,135.991 278.637,137.031 278.288 C 137.255 278.213,137.541 278.063,137.665 277.954 C 137.790 277.846,138.094 277.701,138.340 277.631 C 139.123 277.411,139.005 276.741,138.134 276.461 C 137.886 276.382,137.593 276.238,137.482 276.141 C 137.371 276.044,136.946 275.918,136.536 275.860 C 135.719 275.745,134.881 275.339,134.038 274.651 C 133.737 274.405,133.259 274.038,132.976 273.836 C 131.914 273.076,130.653 272.093,130.244 271.708 C 130.011 271.488,129.677 271.215,129.502 271.101 C 129.176 270.890,126.282 268.566,124.632 267.192 C 123.550 266.291,123.266 266.062,122.610 265.560 C 122.341 265.354,121.872 264.973,121.569 264.714 C 121.265 264.455,120.548 263.896,119.975 263.473 C 119.403 263.050,118.879 262.638,118.811 262.559 C 118.662 262.382,115.934 260.406,114.973 259.778 C 114.590 259.528,113.883 259.073,113.401 258.767 C 112.920 258.462,112.171 257.894,111.737 257.507 C 111.304 257.119,110.325 256.250,109.562 255.576 C 108.798 254.902,107.700 253.900,107.120 253.349 C 106.540 252.798,105.749 252.088,105.362 251.771 C 104.974 251.455,104.657 251.159,104.657 251.115 C 104.657 251.070,104.263 250.705,103.781 250.302 C 103.299 249.900,102.513 249.237,102.035 248.828 C 101.215 248.128,99.958 247.148,99.531 246.875 C 99.426 246.808,98.840 246.417,98.230 246.006 C 96.825 245.061,94.295 243.875,92.384 243.266 C 91.460 242.971,90.788 242.580,90.515 242.180 C 90.392 241.999,90.091 241.702,89.846 241.520 C 89.600 241.339,89.069 240.947,88.664 240.649 C 87.801 240.014,85.496 238.789,84.928 238.665 C 84.711 238.617,84.277 238.465,83.965 238.326 C 83.332 238.047,79.966 237.904,78.738 238.105 M233.389 248.438 L 232.904 248.958 233.425 248.474 C 233.910 248.023,234.002 247.917,233.910 247.917 C 233.890 247.917,233.655 248.151,233.389 248.438 M75.124 251.134 C 75.123 251.278,75.213 251.345,75.398 251.338 C 75.583 251.332,75.613 251.305,75.490 251.259 C 75.389 251.220,75.266 251.128,75.216 251.054 C 75.161 250.971,75.126 251.001,75.124 251.134 M273.947 266.563 C 273.891 266.653,273.913 266.671,274.006 266.614 C 274.087 266.564,274.233 266.590,274.331 266.671 C 274.437 266.758,274.510 266.768,274.510 266.695 C 274.510 266.626,274.423 266.537,274.316 266.496 C 274.059 266.397,274.048 266.399,273.947 266.563 M156.771 275.820 C 156.889 275.851,157.082 275.851,157.200 275.820 C 157.318 275.789,157.221 275.764,156.985 275.764 C 156.749 275.764,156.653 275.789,156.771 275.820 M173.744 277.417 C 173.963 277.444,174.321 277.444,174.540 277.417 C 174.759 277.390,174.580 277.368,174.142 277.368 C 173.704 277.368,173.525 277.390,173.744 277.417 M128.738 286.519 C 128.697 286.586,128.720 286.737,128.789 286.856 C 128.896 287.040,128.915 287.023,128.918 286.734 C 128.922 286.382,128.865 286.314,128.738 286.519 M115.867 292.887 C 115.910 292.957,116.069 293.015,116.220 293.015 C 116.372 293.015,116.561 293.070,116.643 293.137 C 116.735 293.214,116.733 293.196,116.636 293.091 C 116.448 292.884,115.751 292.700,115.867 292.887 M197.794 301.348 C 197.794 301.415,197.877 301.471,197.978 301.471 C 198.079 301.471,198.162 301.415,198.162 301.348 C 198.162 301.281,198.079 301.225,197.978 301.225 C 197.877 301.225,197.794 301.281,197.794 301.348 M158.125 304.503 C 158.718 304.526,159.655 304.525,160.208 304.503 C 160.761 304.480,160.276 304.462,159.130 304.462 C 157.984 304.462,157.532 304.481,158.125 304.503 M273.866 313.322 C 274.018 313.351,274.266 313.351,274.418 313.322 C 274.570 313.293,274.445 313.269,274.142 313.269 C 273.839 313.269,273.715 313.293,273.866 313.322 " stroke="none" fill="#ff0000" fill-rule="evenodd"></path></g></svg>